<svg xmlns="http://www.w3.org/2000/svg" viewBox="0 0 906.09 906.09"><defs><style>.cls-1{fill:#f1f2f2;}.cls-2{fill:#364a5e;}.cls-3{fill:#43b883;}.cls-4{fill:#2bb673;}</style></defs><title>Asset 14</title><g id="Layer_2" data-name="Layer 2"><g id="Layer_1-2" data-name="Layer 1"><rect class="cls-1" width="906.09" height="906.09"/><path class="cls-2" d="M225.32,563.9l-32.43,0H146.65c1.74-3.06,3.34-5.88,5-8.69q22.53-39.06,45.08-78.11Q224.53,429,252.34,380.8l52.16-90.43q18.94-32.83,37.89-65.66c.69-1.2.94-1.11,1.59,0q27.07,47,54.2,94Q426,366.86,453.82,415q28.53,49.46,57.06,98.92,13.71,23.77,27.46,47.53c.43.74.82,1.5,1.34,2.46H461.87l-.82,0Q449.85,544.44,438.63,525l-55.69-96.48-38.85-67.34c-.53-.93-.82-1.8-1.76-.17Q311.68,414.22,281,467.4L243.63,532Q234.45,548,225.32,563.9Z"/><path class="cls-3" d="M225.32,563.9Q234.47,548,243.63,532L281,467.4q30.69-53.19,61.37-106.4c.94-1.63,1.23-.76,1.76.17l38.85,67.34L438.63,525q11.22,19.44,22.42,38.91c-.65,0-1.3.06-2,.06q-34.38,0-68.76,0a2.73,2.73,0,0,1-2.74-1.66q-21.85-38-43.79-75.89l-.63-1c-1.83,3.15-3.56,6.12-5.28,9.11q-19.74,34.18-39.45,68.38a1.78,1.78,0,0,1-1.75,1.09q-35.35,0-70.72,0C225.75,564,225.53,563.92,225.32,563.9Z"/><path class="cls-2" d="M672.53,223.92l32.43,0H751.2c-1.74,3.05-3.34,5.88-5,8.69q-22.53,39.06-45.08,78.1Q673.34,358.85,645.51,407l-52.16,90.43q-18.95,32.82-37.89,65.66c-.69,1.19-.94,1.11-1.59,0q-27.07-47-54.2-94Q471.86,421,444,372.79,415.5,323.33,387,273.87q-13.73-23.78-27.47-47.53c-.43-.74-.82-1.5-1.34-2.46H436c.28,0,.55,0,.82,0q11.2,19.47,22.42,38.92l55.69,96.48q19.44,33.66,38.85,67.34c.53.93.82,1.8,1.77.16q30.65-53.22,61.37-106.39,18.65-32.32,37.32-64.64Q663.4,239.86,672.53,223.92Z"/><path class="cls-3" d="M672.53,223.92q-9.15,15.93-18.31,31.86-18.65,32.32-37.32,64.64-30.71,53.19-61.37,106.39c-.95,1.64-1.24.77-1.77-.16Q534.33,393,514.91,359.31l-55.69-96.48Q448,243.38,436.8,223.91c.65,0,1.31-.06,2-.06q34.38,0,68.76,0a2.74,2.74,0,0,1,2.74,1.67q21.86,38,43.79,75.88c.16.28.33.54.64,1.05L560,293.3q19.74-34.18,39.45-68.38a1.79,1.79,0,0,1,1.75-1.1q35.36.06,70.72,0C672.1,223.85,672.32,223.9,672.53,223.92Z"/><path class="cls-2" d="M174.06,677.15,146.65,592.4H163.5l11.57,38.47c3.27,10.69,6,20.63,8.3,30.94h.25c2.26-10.06,5.28-20.37,8.67-30.68l12.33-38.73h16.47l-29.3,84.75Z"/><path class="cls-2" d="M281.32,658.79c0,7.29.25,13.33.5,18.36H268.24l-.75-9.31h-.25c-2.64,4.41-8.68,10.69-19.62,10.69-11.19,0-21.38-6.66-21.38-26.66v-36h15.47v33.32c0,10.19,3.27,16.73,11.44,16.73,6.16,0,10.19-4.4,11.82-8.3a13.89,13.89,0,0,0,.88-4.78v-37h15.47Z"/><path class="cls-2" d="M309,650.87c.38,11.06,9,15.84,18.86,15.84a46.08,46.08,0,0,0,17-2.76l2.26,10.68a57.59,57.59,0,0,1-21.38,3.78c-19.86,0-31.56-12.2-31.56-30.94,0-17,10.31-32.94,29.93-32.94,19.87,0,26.41,16.34,26.41,29.8a38.07,38.07,0,0,1-.51,6.54Zm26.91-10.82c.12-5.65-2.39-15-12.7-15-9.56,0-13.58,8.68-14.21,15Z"/><path class="cls-4" d="M371.59,677.15V592.4H389.2l21.88,36.34a233,233,0,0,1,14.46,28.42h.25c-1-11.32-1.38-22.26-1.38-35.21V592.4h14.33v84.75h-16l-22.13-37.22a294.73,294.73,0,0,1-15.21-29.3l-.38.13c.63,10.94.75,22.13.75,36.08v30.31Z"/><path class="cls-4" d="M473.19,598.81c0,4.65-3.39,8.3-8.8,8.3a8.12,8.12,0,0,1-8.55-8.3,8.68,8.68,0,0,1,17.35,0Zm-16.47,78.34V615.91h15.59v61.24Z"/><path class="cls-4" d="M544.87,615.91c-.26,4.15-.51,9.18-.51,17.6v34.71c0,12.83-2.64,22-9.05,27.79s-15.22,7.42-23.64,7.42c-7.8,0-16.1-1.63-21.38-4.9l3.4-11.7a36.85,36.85,0,0,0,17.85,4.65c10.06,0,17.61-5.28,17.61-18.48v-5.28h-.25c-3.53,5.41-9.81,9-17.86,9-15.22,0-26-12.57-26-29.93,0-20.12,13.08-32.31,27.79-32.31,9.31,0,14.84,4.52,17.73,9.55h.25l.63-8.17Zm-16,24.52a14.94,14.94,0,0,0-.51-4.15c-1.63-5.66-6-9.93-12.57-9.93-8.68,0-15.09,7.54-15.09,20,0,10.44,5.28,18.86,15,18.86a13.21,13.21,0,0,0,12.58-9.3,27.16,27.16,0,0,0,.63-5.53Z"/><path class="cls-4" d="M571.9,650.87c.37,11.06,9.05,15.84,18.86,15.84a46.08,46.08,0,0,0,17-2.76L610,674.63a57.59,57.59,0,0,1-21.38,3.78c-19.87,0-31.56-12.2-31.56-30.94,0-17,10.31-32.94,29.93-32.94,19.87,0,26.41,16.34,26.41,29.8a38.07,38.07,0,0,1-.51,6.54Zm26.91-10.82c.12-5.65-2.39-15-12.7-15-9.56,0-13.58,8.68-14.21,15Z"/><path class="cls-4" d="M625.84,635.65c0-8.3-.13-14.21-.5-19.74h13.45l.5,11.7h.51c3-8.68,10.18-13.08,16.72-13.08a15.8,15.8,0,0,1,3.65.38v14.58a21.65,21.65,0,0,0-4.53-.5c-7.42,0-12.45,4.78-13.83,11.69a26.79,26.79,0,0,0-.5,4.78v31.69H625.84Z"/><path class="cls-4" d="M687.08,598.81c0,4.65-3.4,8.3-8.81,8.3a8.13,8.13,0,0,1-8.55-8.3,8.68,8.68,0,0,1,17.36,0ZM670.6,677.15V615.91h15.6v61.24Z"/><path class="cls-4" d="M737.25,677.15l-1-6.79h-.38c-3.77,4.78-10.18,8.17-18.1,8.17-12.33,0-19.24-8.92-19.24-18.23,0-15.47,13.7-23.26,36.34-23.14v-1c0-4-1.64-10.69-12.45-10.69A32.39,32.39,0,0,0,705.94,630l-3-10.06c4.52-2.76,12.45-5.4,22.13-5.4,19.62,0,25.27,12.45,25.27,25.78v22.13a99.35,99.35,0,0,0,.88,14.71Zm-2-29.93c-11-.25-21.38,2.14-21.38,11.44,0,6,3.9,8.81,8.8,8.81A12.53,12.53,0,0,0,734.73,659a11,11,0,0,0,.51-3.39Z"/></g></g></svg>