<svg xmlns="http://www.w3.org/2000/svg" viewBox="0 0 604.56 479.62"><defs><style>.cls-1{fill:#364a5e;}.cls-2{fill:#43b883;}.cls-3{fill:#2bb673;}</style></defs><title>Asset 13</title><g id="Layer_2" data-name="Layer 2"><g id="Layer_1-2" data-name="Layer 1"><path class="cls-1" d="M78.67,340.09l-32.43,0H0c1.75-3.05,3.35-5.87,5-8.69q22.55-39,45.09-78.1Q77.87,205.17,105.69,157q26.1-45.21,52.16-90.43Q176.8,33.73,195.74.9c.69-1.2.95-1.11,1.59,0q27.07,47,54.2,94,27.81,48.18,55.64,96.35,28.54,49.44,57.06,98.92,13.71,23.76,27.46,47.52c.43.74.82,1.5,1.34,2.46H315.22l-.81,0L292,301.17,236.29,204.7Q216.87,171,197.45,137.35c-.54-.93-.83-1.8-1.77-.16Q165,190.41,134.31,243.59,115.65,275.9,97,308.23,87.81,324.15,78.67,340.09Z"/><path class="cls-2" d="M78.67,340.09Q87.82,324.16,97,308.23q18.65-32.33,37.32-64.64,30.7-53.19,61.37-106.4c.94-1.64,1.23-.77,1.77.16Q216.86,171,236.29,204.7L292,301.17l22.43,38.92c-.66,0-1.31.06-2,.06q-34.4,0-68.77,0a2.74,2.74,0,0,1-2.74-1.66q-21.85-38-43.78-75.89l-.64-1c-1.83,3.14-3.56,6.12-5.28,9.11q-19.73,34.19-39.45,68.37a1.76,1.76,0,0,1-1.74,1.1q-35.37,0-70.73,0C79.1,340.15,78.89,340.11,78.67,340.09Z"/><path class="cls-1" d="M525.89.1l32.42,0q22.11,0,44.22,0h2c-1.75,3.05-3.35,5.87-5,8.69L554.5,86.86Q526.69,135,498.87,183.2q-26.1,45.21-52.17,90.43-18.93,32.83-37.88,65.66c-.69,1.2-.95,1.11-1.59,0q-27.08-47-54.2-94Q325.22,197.14,297.39,149q-28.54-49.45-57.06-98.92Q226.61,26.29,212.87,2.53c-.43-.74-.82-1.5-1.35-2.46h77.82c.27,0,.54,0,.81,0Q301.37,19.56,312.58,39l55.68,96.47q19.44,33.67,38.85,67.35c.54.93.83,1.8,1.77.16q30.64-53.22,61.37-106.39Q488.91,64.29,507.57,32,516.75,16,525.89.1Z"/><path class="cls-2" d="M525.89.1Q516.72,16,507.57,32,488.92,64.3,470.25,96.61,439.54,149.79,408.88,203c-.94,1.64-1.23.77-1.77-.16q-19.41-33.68-38.85-67.35L312.58,39Q301.34,19.56,290.15.1c.66,0,1.31-.06,2-.06q34.38,0,68.76,0a2.75,2.75,0,0,1,2.75,1.66q21.84,38,43.78,75.89c.16.28.33.54.64,1,1.82-3.15,3.56-6.13,5.28-9.11Q433,35.31,452.76,1.11A1.79,1.79,0,0,1,454.51,0q35.37.06,70.73,0C525.45,0,525.67.08,525.89.1Z"/><path class="cls-1" d="M27.41,453.34,0,368.58H16.85l11.57,38.48c3.27,10.69,6,20.63,8.3,30.94H37c2.26-10.06,5.28-20.37,8.68-30.69L58,368.58H74.44l-29.3,84.76Z"/><path class="cls-1" d="M134.67,435c0,7.29.25,13.33.51,18.36H121.59l-.75-9.31h-.25c-2.64,4.4-8.68,10.69-19.62,10.69-11.19,0-21.37-6.66-21.37-26.66v-36H95.06v33.32c0,10.19,3.27,16.73,11.44,16.73,6.17,0,10.19-4.4,11.83-8.3a14.17,14.17,0,0,0,.88-4.78v-37h15.46Z"/><path class="cls-1" d="M162.33,427.06c.38,11.06,9.06,15.84,18.86,15.84a46,46,0,0,0,17-2.77l2.26,10.69a57.59,57.59,0,0,1-21.37,3.77c-19.87,0-31.57-12.19-31.57-30.93,0-17,10.31-33,29.93-33,19.87,0,26.41,16.35,26.41,29.81a38.39,38.39,0,0,1-.5,6.54Zm26.91-10.82c.13-5.66-2.39-15-12.7-15-9.56,0-13.58,8.67-14.21,15Z"/><path class="cls-3" d="M225,453.34V368.58h17.6l21.88,36.34a233.76,233.76,0,0,1,14.46,28.42h.25c-1-11.31-1.38-22.25-1.38-35.21V368.58H292.1v84.76h-16L254,416.12a298,298,0,0,1-15.21-29.3l-.38.12c.63,10.94.76,22.13.76,36.09v30.31Z"/><path class="cls-3" d="M326.55,375c0,4.65-3.4,8.3-8.81,8.3a8.13,8.13,0,0,1-8.55-8.3,8.68,8.68,0,0,1,17.36,0Zm-16.48,78.34V392.1h15.6v61.24Z"/><path class="cls-3" d="M398.22,392.1c-.25,4.15-.5,9.18-.5,17.6v34.71c0,12.83-2.65,22-9.06,27.79s-15.21,7.42-23.64,7.42c-7.79,0-16.09-1.64-21.38-4.91L347,463a37,37,0,0,0,17.86,4.65c10.06,0,17.6-5.28,17.6-18.48v-5.28h-.25c-3.52,5.4-9.81,9-17.86,9-15.21,0-26-12.57-26-29.93,0-20.12,13.08-32.32,27.79-32.32,9.31,0,14.84,4.53,17.73,9.56h.25l.63-8.17Zm-16,24.52a15.33,15.33,0,0,0-.5-4.15c-1.64-5.66-6-9.94-12.58-9.94-8.67,0-15.09,7.55-15.09,20,0,10.44,5.28,18.86,15,18.86a13.2,13.2,0,0,0,12.57-9.3,26.57,26.57,0,0,0,.63-5.54Z"/><path class="cls-3" d="M425.25,427.06c.38,11.06,9.06,15.84,18.86,15.84a46,46,0,0,0,17-2.77l2.26,10.69A57.59,57.59,0,0,1,442,454.59c-19.87,0-31.57-12.19-31.57-30.93,0-17,10.31-33,29.93-33,19.87,0,26.41,16.35,26.41,29.81a37.15,37.15,0,0,1-.51,6.54Zm26.91-10.82c.13-5.66-2.39-15-12.7-15-9.56,0-13.58,8.67-14.21,15Z"/><path class="cls-3" d="M479.19,411.84c0-8.3-.12-14.21-.5-19.74h13.46l.5,11.69h.5c3-8.67,10.19-13.08,16.73-13.08a16.21,16.21,0,0,1,3.64.38v14.59a21.54,21.54,0,0,0-4.52-.5c-7.42,0-12.45,4.77-13.84,11.69a26.69,26.69,0,0,0-.5,4.78v31.69H479.19Z"/><path class="cls-3" d="M540.43,375c0,4.65-3.4,8.3-8.8,8.3a8.12,8.12,0,0,1-8.55-8.3,8.68,8.68,0,0,1,17.35,0ZM524,453.34V392.1h15.59v61.24Z"/><path class="cls-3" d="M590.6,453.34l-1-6.79h-.37c-3.78,4.78-10.19,8.17-18.11,8.17-12.32,0-19.24-8.93-19.24-18.23,0-15.47,13.71-23.27,36.34-23.14v-1c0-4-1.63-10.69-12.45-10.69a32.45,32.45,0,0,0-16.47,4.53l-3-10.06c4.53-2.76,12.45-5.41,22.13-5.41,19.62,0,25.28,12.45,25.28,25.78v22.14a98.09,98.09,0,0,0,.88,14.71Zm-2-29.93c-10.94-.25-21.38,2.14-21.38,11.44,0,6,3.9,8.81,8.8,8.81a12.53,12.53,0,0,0,12.07-8.43,11.06,11.06,0,0,0,.51-3.4Z"/></g></g></svg>